:version 1.10
:name ASF
:units
  mass 1
  length 1
  angle deg
:documentation
  ASF file generated by Kaydara
:root
  axis xyz
  order  tx ty tz rx ry rz
  position 0 0 0
  orientation 0 0 0
:bonedata
  begin
    id 1
    name RightUpLegDummy
    direction -1 2.30186e-007 8.31532e-007
    length 4.04083
    axis 0 0 0 xyz
  end
  begin
    id 2
    name RightUpLeg
    direction -0.000919234 -0.999985 0.00544864
    length 17.4221
    axis -3.80308 -0.00076134 -0.0523649 xyz
    dof rx ry rz
  end
  begin
    id 3
    name RightLeg
    direction -0.000919271 -0.999984 -0.00555045
    length 17.1239
    axis 4.00314 0.0181274 -0.183583 xyz
    dof rx ry rz
  end
  begin
    id 4
    name RightFoot
    direction -2.57843e-005 -4.04509e-007 1
    length 6.72091
    axis 8.18909e-005 -0.122003 -0.403008 xyz
    dof rx ry rz
  end
  begin
    id 5
    name RightToes
    direction 0.00116825 -0.014069 0.9999
    length 3.85082
    axis 0.000514414 0.540638 -0.356797 xyz
    dof rx ry rz
  end
  begin
    id 6
    name SpineDummy
    direction 0.0168869 0.966876 -0.254689
    length 6.99894
    axis 0 0 0 xyz
  end
  begin
    id 7
    name Spine
    direction -0.0132008 0.999903 0.00446247
    length 11.1999
    axis -0.00148109 0.00725429 0.756411 xyz
    dof rx ry rz
  end
  begin
    id 8
    name Spine1
    direction 0 0 0
    length 0
    axis -0.000934958 0.0245693 1.46543 xyz
    dof rx ry rz
  end
  begin
    id 9
    name HEadDummy
    direction -0.0255732 0.999672 0.00128215
    length 3.43865
    axis -0.000934958 0.0245693 1.46543 xyz
  end
  begin
    id 10
    name HEad
    direction -0.0472656 0.980052 0.19304
    length 5.12695
    axis -0.000934954 0.0245693 1.46543 xyz
    dof rx ry rz
  end
  begin
    id 11
    name LeftShoulder1Dummy
    direction 0.953098 0.301717 -0.023914
    length 3.68488
    axis -0.000934958 0.0245693 1.46543 xyz
  end
  begin
    id 12
    name LeftShoulder1
    direction 0.962466 0.271167 0.0112566
    length 3.13809
    axis -0.000934958 0.0245693 1.46543 xyz
    dof rx ry rz
  end
  begin
    id 13
    name LeftArm
    direction 0.999943 0.00455037 -0.00961766
    length 11.3419
    axis -23.1648 0.685459 1.22814 xyz
    dof rx ry rz
  end
  begin
    id 14
    name LeftForeArm
    direction 0.999332 0.0131969 0.0340885
    length 8.70632
    axis -9.90633 0.618216 0.0826942 xyz
    dof rx ry rz
  end
  begin
    id 15
    name LeftHand
    direction 0.994373 -0.0366703 0.0993905
    length 5.32135
    axis 0.00675269 0.680415 0.445699 xyz
    dof rx ry rz
  end
  begin
    id 16
    name RightShoulderDummy
    direction -0.967298 0.252589 -0.0230903
    length 3.68488
    axis -0.000934958 0.0245693 1.46543 xyz
  end
  begin
    id 17
    name RightShoulder
    direction -0.975062 0.221602 0.0120823
    length 3.13809
    axis 0.216257 0.0246515 1.45863 xyz
    dof rx ry rz
  end
  begin
    id 18
    name RightArm
    direction -0.99886 -0.00851186 -0.0469687
    length 10.3947
    axis -23.196 0.23503 -0.532632 xyz
    dof rx ry rz
  end
  begin
    id 19
    name RightForeArm
    direction -0.99909 0.00114866 0.0426317
    length 8.68355
    axis -9.91764 -0.134943 0.610517 xyz
    dof rx ry rz
  end
  begin
    id 20
    name RightHand
    direction -0.992888 -0.0489538 0.10852
    length 5.28593
    axis -0.00275396 -0.197403 0.246414 xyz
    dof rx ry rz
  end
  begin
    id 21
    name LeftUpLegDummy
    direction 1 -2.30186e-007 -8.31532e-007
    length 4.04083
    axis 0 0 0 xyz
  end
  begin
    id 22
    name LeftUpLeg
    direction -0.000920097 -1 2.79241e-006
    length 17.4221
    axis -3.48782 0.00143434 -0.0532288 xyz
    dof rx ry rz
  end
  begin
    id 23
    name LeftLeg
    direction -0.000920097 -1 2.7912e-006
    length 17.1239
    axis 3.68162 -0.00806512 -0.0529896 xyz
    dof rx ry rz
  end
  begin
    id 24
    name LeftFoot
    direction -2.57845e-005 -3.987e-007 1
    length 6.72091
    axis 3.02372e-005 -0.00147829 -0.214229 xyz
    dof rx ry rz
  end
  begin
    id 25
    name LeftToes
    direction 0.00813577 -0.00488255 0.999955
    length 3.85048
    axis 3.89895e-005 -0.0014783 -0.214229 xyz
    dof rx ry rz
  end
:hierarchy
  begin
    root RightUpLegDummy SpineDummy LeftUpLegDummy
    RightUpLegDummy RightUpLeg
    RightUpLeg RightLeg
    RightLeg RightFoot
    RightFoot RightToes
    SpineDummy Spine
    Spine Spine1
    Spine1 HEadDummy LeftShoulder1Dummy RightShoulderDummy
    HEadDummy HEad
    LeftShoulder1Dummy LeftShoulder1
    LeftShoulder1 LeftArm
    LeftArm LeftForeArm
    LeftForeArm LeftHand
    RightShoulderDummy RightShoulder
    RightShoulder RightArm
    RightArm RightForeArm
    RightForeArm RightHand
    LeftUpLegDummy LeftUpLeg
    LeftUpLeg LeftLeg
    LeftLeg LeftFoot
    LeftFoot LeftToes
  end

:SAMPLES-PER-SECOND 30
:FULLY-SPECIFIED
:DEGREES
21
root  -41.4328 34.7151 4.57081 -158.734 85.9582 -167.083
RightUpLeg  -7.18702 -19.1153 -0.597977
RightLeg  6.27498 -2.83512 -0.126927
RightFoot  4.67003 0.0244816 -0.0716935
RightToes  -27.0476 -0.123324 -0.231305
Spine  -2.06625 -0.149274 0.849598
Spine1  -4.20435 -0.184485 2.26811
HEad  -69.4614 -12.5987 9.49967
LeftShoulder1  -1.94126e-019 -3.10601e-018 -2.51263e-017
LeftArm  -5.81708 24.287 -82.8858
LeftForeArm  32.741 -21.9757 -3.37888
LeftHand  -0.431694 -1.7689 7.18067
RightShoulder  -4.96962e-017 0 -2.36833e-017
RightArm  -29.1784 -23.7939 76.2481
RightForeArm  55.8176 14.4382 1.20149
RightHand  -0.42251 -0.861587 -10.7496
LeftUpLeg  -7.59001 4.10878 5.64146
LeftLeg  5.12309 12.903 0.321198
LeftFoot  8.62341 -0.139882 2.07683
LeftToes  -29.4856 2.40056e-006 -7.68412e-008
22
root  -41.4192 34.7125 4.54858 -157.552 86.338 -165.906
RightUpLeg  -7.24957 -18.8603 -0.662993
RightLeg  6.32348 -2.71421 -0.123777
RightFoot  4.67813 0.0239064 -0.0634112
RightToes  -27.1205 -0.123572 -0.231554
Spine  -2.07481 -0.164173 0.854302
Spine1  -4.22199 -0.218353 2.27935
HEad  -69.09 -12.285 9.17022
LeftShoulder1  -1.94126e-019 -3.10601e-018 -2.51263e-017
LeftArm  -5.9755 24.3744 -82.8259
LeftForeArm  32.9048 -21.6096 -3.33238
LeftHand  -0.448244 -1.88931 7.33509
RightShoulder  -4.96962e-017 0 -2.36833e-017
RightArm  -29.1833 -23.9143 76.2359
RightForeArm  55.8898 14.392 1.20652
RightHand  -0.423924 -0.879269 -10.7039
LeftUpLeg  -7.51646 4.36386 5.57115
LeftLeg  5.1794 13.0317 0.337051
LeftFoot  8.50936 -0.139445 2.07004
LeftToes  -29.3755 2.40056e-006 -7.68412e-008
23
root  -41.3975 34.7079 4.52413 -155.927 86.7444 -164.292
RightUpLeg  -7.31119 -18.6124 -0.734563
RightLeg  6.38118 -2.54066 -0.118367
RightFoot  4.69521 0.0230853 -0.0516192
RightToes  -27.2383 -0.123823 -0.231807
Spine  -2.09404 -0.174193 0.860646
Spine1  -4.26114 -0.243334 2.29292
HEad  -68.7016 -11.9242 8.83581
LeftShoulder1  -1.94126e-019 -3.10601e-018 -2.51263e-017
LeftArm  -6.20167 24.5656 -82.7624
LeftForeArm  33.083 -21.1556 -3.27264
LeftHand  -0.453459 -1.88512 7.42228
RightShoulder  -4.96962e-017 0 -2.36833e-017
RightArm  -29.3009 -24.0507 76.2014
RightForeArm  55.9898 14.2833 1.21952
RightHand  -0.422727 -0.870867 -10.742
LeftUpLeg  -7.44268 4.67028 5.49922
LeftLeg  5.26982 13.1276 0.36003
LeftFoot  8.36729 -0.138204 2.05075
LeftToes  -29.2678 2.40056e-006 -7.68412e-008
24
root  -41.373 34.7022 4.50698 -153.425 87.1512 -161.813
RightUpLeg  -7.3842 -18.3405 -0.772558
RightLeg  6.43234 -2.38995 -0.113427
RightFoot  4.69523 0.0223335 -0.04082
RightToes  -27.3252 -0.124077 -0.232063
Spine  -2.11512 -0.190609 0.870255
Spine1  -4.30416 -0.280563 2.31192
HEad  -68.3486 -11.4164 8.54462
LeftShoulder1  -1.94126e-019 -3.10601e-018 -2.51263e-017
LeftArm  -6.39484 24.7726 -82.6464
LeftForeArm  33.1534 -20.6287 -3.20923
LeftHand  -0.451323 -1.79334 7.48563
RightShoulder  -4.96962e-017 0 -2.36833e-017
RightArm  -29.4839 -24.1683 76.1729
RightForeArm  56.1132 14.1472 1.23619
RightHand  -0.42325 -0.917174 -10.7216
LeftUpLeg  -7.38651 4.91458 5.457
LeftLeg  5.38241 13.2997 0.390584
LeftFoot  8.22583 -0.135274 2.04262
LeftToes  -29.1504 2.40056e-006 -7.68412e-008
25
root  -41.3415 34.6939 4.49046 -150.294 87.5345 -158.707
RightUpLeg  -7.44016 -18.1032 -0.813223
RightLeg  6.47693 -2.23097 -0.107558
RightFoot  4.68586 0.0215179 -0.0291073
RightToes  -27.379 -0.124333 -0.232323
Spine  -2.1441 -0.229907 0.868723
Spine1  -4.3635 -0.363192 2.30744
HEad  -67.9333 -10.8027 8.27646
LeftShoulder1  -1.94126e-019 -3.10601e-018 -2.51263e-017
LeftArm  -6.82954 25.027 -82.5049
LeftForeArm  33.3816 -20.0171 -3.13957
LeftHand  -0.448129 -1.77176 7.50102
RightShoulder  -4.96962e-017 0 -2.36833e-017
RightArm  -29.8511 -24.2395 76.1853
RightForeArm  56.4041 13.9095 1.26473
RightHand  -0.422383 -0.917546 -10.7486
LeftUpLeg  -7.33609 5.1474 5.41486
LeftLeg  5.52206 13.4748 0.428191
LeftFoot  8.06144 -0.131591 2.02829
LeftToes  -29.0741 2.40056e-006 -7.68412e-008
26
root  -41.3089 34.6875 4.47291 -146.86 87.8399 -155.27
RightUpLeg  -7.4294 -17.8885 -0.859053
RightLeg  6.47014 -2.12231 -0.102021
RightFoot  4.70853 0.0210668 -0.0226038
RightToes  -27.4371 -0.12459 -0.232585
Spine  -2.17499 -0.246977 0.874113
Spine1  -4.42579 -0.403876 2.322
HEad  -67.5154 -10.2431 7.99662
LeftShoulder1  -1.94126e-019 -3.10601e-018 -2.51263e-017
LeftArm  -8.06711 25.0883 -82.5373
LeftForeArm  33.9826 -18.9096 -3.01328
LeftHand  -0.451237 -1.895 7.37754
RightShoulder  -4.96962e-017 0 -2.36833e-017
RightArm  -30.3017 -24.431 76.1531
RightForeArm  56.7282 13.7477 1.28297
RightHand  -0.422876 -0.909348 -10.734
LeftUpLeg  -7.26191 5.32251 5.38103
LeftLeg  5.64126 13.6227 0.460897
LeftFoot  7.89063 -0.12745 2.00755
LeftToes  -28.923 2.40056e-006 -7.68412e-008
